<svg id="Capa_1" enable-background="new 0 0 512 512" height="512" viewBox="0 0 512 512" width="512" xmlns="http://www.w3.org/2000/svg" xmlns:xlink="http://www.w3.org/1999/xlink"><linearGradient id="SVGID_1_" gradientUnits="userSpaceOnUse" x1="256" x2="256" y1="512" y2="0"><stop offset="0" stop-color="#fd3a84"/><stop offset="1" stop-color="#ffa68d"/></linearGradient><linearGradient id="SVGID_2_" gradientUnits="userSpaceOnUse" x1="256" x2="256" y1="451" y2="61"><stop offset="0" stop-color="#ffc2cc"/><stop offset="1" stop-color="#fff2f4"/></linearGradient><g><g><g><path d="m436 61v-16c0-24.901-20.1-45-45-45h-300c-24.901 0-45 20.099-45 45v422c0 24.899 20.099 45 45 45h300c24.9 0 45-20.101 45-45v-256l30-69.802z" fill="url(#SVGID_1_)"/></g></g><g><g><path d="m91 61h-60c-8.401 0-15 6.599-15 15 0 8.399 6.599 15 15 15h60c8.401 0 15-6.601 15-15 0-8.401-6.599-15-15-15zm0 120h-60c-8.401 0-15 6.599-15 15 0 8.399 6.599 15 15 15h60c8.401 0 15-6.601 15-15 0-8.401-6.599-15-15-15zm0 120h-60c-8.401 0-15 6.599-15 15 0 8.399 6.599 15 15 15h60c8.401 0 15-6.601 15-15 0-8.401-6.599-15-15-15zm0 120h-60c-8.401 0-15 6.599-15 15 0 8.399 6.599 15 15 15h60c8.401 0 15-6.601 15-15 0-8.401-6.599-15-15-15zm210-225c0-33.001-27-60-60-60-32.999 0-60 26.999-60 60 0 32.999 27.001 60 60 60s60-27.001 60-60zm-60 60c-49.5 0-90 40.499-90 90v15c0 8.399 6.599 15 15 15h150c8.401 0 15-6.601 15-15v-15c0-49.501-40.499-90-90-90zm240-195h-45v150h45c8.401 0 15-6.601 15-15v-120c0-8.401-6.599-15-15-15z" fill="url(#SVGID_2_)"/></g></g></g></svg>